<?xml version="1.0" standalone="no"?>
<!DOCTYPE svg PUBLIC "-//W3C//DTD SVG 20010904//EN"
 "http://www.w3.org/TR/2001/REC-SVG-20010904/DTD/svg10.dtd">
<svg version="1.0" xmlns="http://www.w3.org/2000/svg"
 width="860.000000pt" height="859.000000pt" viewBox="0 0 860.000000 859.000000"
 preserveAspectRatio="xMidYMid meet">
<metadata>
Created by potrace 1.16, written by Peter Selinger 2001-2019
</metadata>
<g transform="translate(0.000000,859.000000) scale(0.100000,-0.100000)"
fill="#000000" stroke="none">
<path d="M471 8575 c-175 -38 -345 -170 -429 -332 l-42 -81 0 -3865 0 -3864
35 -69 c84 -168 251 -300 435 -345 82 -21 7498 -21 7580 0 30 7 93 31 140 53
70 34 100 56 170 127 95 96 146 183 177 306 17 67 18 248 18 3795 0 3543 -1
3728 -18 3790 -68 249 -258 435 -494 485 -100 21 -7474 21 -7572 0z m7550
-183 c162 -43 283 -163 333 -331 15 -50 16 -382 16 -3761 0 -3302 -2 -3712
-15 -3765 -47 -179 -210 -321 -395 -345 -102 -13 -7298 -13 -7400 0 -182 23
-337 154 -391 330 -19 64 -19 108 -17 3800 l3 3735 37 78 c64 133 196 240 328
266 25 5 1660 9 3740 9 3462 1 3699 0 3761 -16z"/>
<path d="M5280 4465 l0 -3315 405 0 405 0 0 775 c0 426 2 775 5 775 3 0 393
-374 868 -831 l862 -832 3 669 2 668 -655 656 c-360 361 -655 661 -655 666 0
5 34 22 75 37 118 44 301 138 415 214 621 411 975 1091 946 1818 -7 182 -9
196 -42 357 -156 747 -738 1367 -1485 1583 -245 71 -284 75 -740 75 l-409 0 0
-3315z m991 2601 c436 -174 745 -552 846 -1036 25 -118 25 -400 0 -523 -87
-434 -360 -797 -743 -990 -64 -32 -234 -97 -255 -97 -5 0 -9 535 -9 1350 l0
1350 28 -6 c15 -3 75 -25 133 -48z"/>
<path d="M2705 7759 c-917 -84 -1694 -708 -1975 -1585 -69 -217 -99 -391 -107
-639 -35 -1098 717 -2074 1780 -2309 201 -44 263 -50 502 -50 258 0 377 15
608 79 901 248 1560 1036 1658 1984 15 143 6 461 -16 591 -63 377 -209 723
-431 1021 -90 121 -274 313 -389 406 -272 220 -603 380 -945 457 -193 44 -491
63 -685 45z m385 -634 c600 -92 1097 -511 1299 -1097 72 -211 86 -301 86 -563
0 -202 -3 -243 -23 -335 -72 -330 -216 -607 -434 -835 -231 -242 -522 -405
-852 -477 -86 -19 -132 -22 -306 -22 -226 0 -322 14 -505 75 -796 266 -1271
1132 -1081 1969 130 572 529 1028 1063 1214 91 31 247 69 328 79 81 10 339 6
425 -8z"/>
<path d="M740 2285 l0 -1135 2085 2 2086 3 0 325 0 325 -1736 3 -1735 2 0 805
0 805 -350 0 -350 0 0 -1135z"/>
</g>
</svg>
