<svg id="Capa_1" enable-background="new 0 0 512 512" height="512" viewBox="0 0 512 512" width="512" xmlns="http://www.w3.org/2000/svg"><g><g><path d="m488.468 95.677h-464.936c-8.854 0-16.032 7.178-16.032 16.032v288.581c0 8.854 7.178 16.032 16.032 16.032h464.935c8.854 0 16.032-7.178 16.032-16.032v-288.58c.001-8.855-7.177-16.033-16.031-16.033z" fill="#f2f2f6"/><circle cx="256" cy="256" fill="#e5646e" r="80.161"/><path d="m31.548 352.194v-256.517h-8.016c-8.854 0-16.032 7.178-16.032 16.032v288.581c0 8.854 7.179 16.032 16.032 16.032h464.935c8.854 0 16.032-7.178 16.032-16.032v-8.016h-432.87c-22.1 0-40.081-17.98-40.081-40.08z" fill="#e1e1e6"/></g><g><path d="m488.468 88.178h-464.936c-12.975 0-23.532 10.556-23.532 23.532v288.58c0 12.976 10.557 23.532 23.532 23.532h464.936c12.976 0 23.532-10.556 23.532-23.532v-288.58c0-12.976-10.557-23.532-23.532-23.532zm8.532 312.112c0 4.705-3.828 8.532-8.532 8.532h-464.936c-4.705 0-8.532-3.827-8.532-8.532v-288.58c0-4.705 3.828-8.532 8.532-8.532h464.936c4.705 0 8.532 3.827 8.532 8.532z"/><path d="m318.715 205.562c-3.454 2.287-4.399 6.941-2.112 10.395 7.888 11.911 12.058 25.758 12.058 40.043 0 40.065-32.596 72.661-72.661 72.661s-72.661-32.596-72.661-72.661 32.596-72.661 72.661-72.661c14.284 0 28.131 4.169 40.043 12.057 3.453 2.287 8.106 1.341 10.394-2.112 2.287-3.454 1.341-8.107-2.113-10.394-14.375-9.52-31.085-14.551-48.324-14.551-48.336 0-87.661 39.324-87.661 87.661s39.325 87.661 87.661 87.661 87.661-39.324 87.661-87.661c0-17.24-5.032-33.95-14.552-48.325-2.286-3.453-6.94-4.399-10.394-2.113z"/></g></g></svg>